<svg xmlns="http://www.w3.org/2000/svg" height="750pt" version="1.1" viewBox="-62 0 750 750" width="750pt">
<g id="surface1">
<path d="M 393.558594 276.523438 C 408.648438 261.4375 408.648438 236.984375 393.558594 221.898438 C 386.0625 214.257812 375.671875 210.164062 364.980469 210.648438 C 354.273438 211.015625 344.199219 215.796875 337.152344 223.851562 L 293.15625 274.375 L 160.113281 219.1875 C 155.4375 217.273438 150.074219 218.339844 146.488281 221.898438 L 121.765625 246.609375 C 119.21875 249.160156 117.898438 252.679688 118.140625 256.269531 C 118.378906 259.863281 120.15625 263.171875 123.007812 265.359375 L 228.769531 345.511719 L 171.921875 404.101562 L 109.015625 380.4375 C 104.417969 378.671875 99.222656 379.796875 95.761719 383.289062 L 83.492188 395.550781 C 80.929688 398.101562 79.589844 401.636719 79.828125 405.242188 C 80.074219 408.847656 81.859375 412.179688 84.734375 414.359375 L 145.761719 460.425781 L 156.023438 470.648438 L 200.9375 530.546875 C 203.105469 533.457031 206.4375 535.28125 210.054688 535.550781 L 210.9375 535.550781 C 214.253906 535.546875 217.429688 534.234375 219.773438 531.882812 L 232.050781 519.601562 C 235.5 516.164062 236.632812 511.035156 234.960938 506.464844 L 212.285156 444.609375 L 270.875 387.773438 L 350.039062 492.273438 C 352.21875 495.15625 355.539062 496.949219 359.136719 497.195312 C 362.734375 497.367188 366.242188 496.054688 368.835938 493.558594 L 393.460938 468.941406 C 397.039062 465.359375 398.105469 459.984375 396.171875 455.3125 L 341.113281 322.3125 L 391.484375 278.445312 C 392.210938 277.84375 392.910156 277.203125 393.558594 276.523438 Z M 375.238281 259.472656 L 317.925781 309.375 C 313.867188 312.898438 312.519531 318.625 314.574219 323.589844 L 370 457.21875 L 361.414062 465.800781 L 282.375 361.476562 C 280.214844 358.617188 276.933594 356.828125 273.363281 356.546875 C 269.785156 356.253906 266.265625 357.53125 263.714844 360.054688 L 189.539062 432.027344 C 185.734375 435.4375 184.378906 440.820312 186.136719 445.625 L 202.898438 491.410156 L 175.578125 455 C 175.21875 454.53125 174.835938 454.078125 174.414062 453.664062 L 163.632812 442.890625 C 163.082031 442.234375 162.453125 441.65625 161.761719 441.152344 L 124.421875 412.976562 L 170.839844 430.472656 C 175.507812 432.230469 180.773438 431.046875 184.234375 427.445312 L 256.597656 352.859375 C 259.09375 350.292969 260.371094 346.777344 260.097656 343.207031 C 259.820312 339.628906 258.03125 336.347656 255.175781 334.183594 L 149.585938 254.1875 L 158.25 245.539062 L 291.890625 300.9375 C 296.84375 302.988281 302.558594 301.65625 306.085938 297.613281 L 355.984375 240.328125 C 358.457031 237.453125 362.035156 235.761719 365.824219 235.664062 C 369.585938 235.425781 373.25 236.882812 375.824219 239.640625 C 378.394531 242.179688 379.828125 245.644531 379.808594 249.25 C 379.765625 253.144531 378.105469 256.839844 375.238281 259.472656 Z M 375.238281 259.472656 " style=" stroke:none;fill-rule:nonzero;fill:#abf0d1;fill-opacity:1;" />
<path d="M 450 275 L 500 275 L 500 300 L 450 300 Z M 450 275 " style=" stroke:none;fill-rule:nonzero;fill:rgb(0%,0%,0%);fill-opacity:1;" />
<path d="M 412.5 275 L 437.5 275 L 437.5 300 L 412.5 300 Z M 412.5 275 " style=" stroke:none;fill-rule:nonzero;fill:rgb(0%,0%,0%);fill-opacity:1;" />
<path d="M 512.5 275 L 537.5 275 L 537.5 300 L 512.5 300 Z M 512.5 275 " style=" stroke:none;fill-rule:nonzero;fill:rgb(0%,0%,0%);fill-opacity:1;" />
<path d="M 412.5 312.5 L 537.5 312.5 L 537.5 337.5 L 412.5 337.5 Z M 412.5 312.5 " style=" stroke:none;fill-rule:nonzero;fill:rgb(0%,0%,0%);fill-opacity:1;" />
<path d="M 412.5 350 L 462.5 350 L 462.5 375 L 412.5 375 Z M 412.5 350 " style=" stroke:none;fill-rule:nonzero;fill:rgb(0%,0%,0%);fill-opacity:1;" />
<path d="M 475 350 L 537.5 350 L 537.5 375 L 475 375 Z M 475 350 " style=" stroke:none;fill-rule:nonzero;fill:rgb(0%,0%,0%);fill-opacity:1;" />
<path d="M 412.5 387.5 L 462.5 387.5 L 462.5 412.5 L 412.5 412.5 Z M 412.5 387.5 " style=" stroke:none;fill-rule:nonzero;fill:rgb(0%,0%,0%);fill-opacity:1;" />
<path d="M 475 387.5 L 500 387.5 L 500 412.5 L 475 412.5 Z M 475 387.5 " style=" stroke:none;fill-rule:nonzero;fill:rgb(0%,0%,0%);fill-opacity:1;" />
<path d="M 512.5 387.5 L 537.5 387.5 L 537.5 412.5 L 512.5 412.5 Z M 512.5 387.5 " style=" stroke:none;fill-rule:nonzero;fill:rgb(0%,0%,0%);fill-opacity:1;" />
<path d="M 412.5 425 L 537.5 425 L 537.5 450 L 412.5 450 Z M 412.5 425 " style=" stroke:none;fill-rule:nonzero;fill:rgb(0%,0%,0%);fill-opacity:1;" />
<path d="M 300 37.5 L 325 37.5 L 325 62.5 L 300 62.5 Z M 300 37.5 " style=" stroke:none;fill-rule:nonzero;fill:rgb(0%,0%,0%);fill-opacity:1;" />
<path d="M 300 687.5 L 325 687.5 L 325 712.5 L 300 712.5 Z M 300 687.5 " style=" stroke:none;fill-rule:nonzero;fill:rgb(0%,0%,0%);fill-opacity:1;" />
<path d="M 587.5 125 L 525 125 L 525 37.5 C 525 16.792969 508.207031 0 487.5 0 L 137.5 0 C 116.792969 0 100 16.792969 100 37.5 L 100 125 L 37.5 125 C 16.792969 125 0 141.792969 0 162.5 L 0 587.5 C 0 608.207031 16.792969 625 37.5 625 L 100 625 L 100 712.5 C 100 733.207031 116.792969 750 137.5 750 L 487.5 750 C 508.207031 750 525 733.207031 525 712.5 L 525 625 L 587.5 625 C 608.207031 625 625 608.207031 625 587.5 L 625 162.5 C 625 141.792969 608.207031 125 587.5 125 Z M 137.5 25 L 487.5 25 C 494.40625 25 500 30.59375 500 37.5 L 500 75 L 125 75 L 125 37.5 C 125 30.59375 130.59375 25 137.5 25 Z M 125 100 L 500 100 L 500 125 L 125 125 Z M 487.5 725 L 137.5 725 C 130.59375 725 125 719.40625 125 712.5 L 125 675 L 500 675 L 500 712.5 C 500 719.40625 494.40625 725 487.5 725 Z M 500 650 L 125 650 L 125 625 L 500 625 Z M 600 587.5 C 600 594.40625 594.40625 600 587.5 600 L 37.5 600 C 30.59375 600 25 594.40625 25 587.5 L 25 162.5 C 25 155.59375 30.59375 150 37.5 150 L 587.5 150 C 594.40625 150 600 155.59375 600 162.5 Z M 600 587.5 " style=" stroke:none;fill-rule:nonzero;fill:rgb(0%,0%,0%);fill-opacity:1;" />
</g>
</svg>